<svg width="55" height="56" viewBox="0 0 55 56" fill="none" xmlns="http://www.w3.org/2000/svg">
<rect width="55" height="56" fill="#020203"/>
<path d="M33.8862 25.8147C33.9606 25.8891 33.9978 25.9747 33.9978 26.0714C33.9978 26.1682 33.9606 26.2537 33.8862 26.3281L28.6853 31.529C28.6109 31.6034 28.5253 31.6406 28.4286 31.6406C28.3318 31.6406 28.2463 31.6034 28.1719 31.529L22.971 26.3281C22.8966 26.2537 22.8594 26.1682 22.8594 26.0714C22.8594 25.9747 22.8966 25.8891 22.971 25.8147L23.529 25.2567C23.6034 25.1823 23.689 25.1451 23.7857 25.1451C23.8824 25.1451 23.968 25.1823 24.0424 25.2567L28.4286 29.6429L32.8147 25.2567C32.8891 25.1823 32.9747 25.1451 33.0714 25.1451C33.1682 25.1451 33.2537 25.1823 33.3281 25.2567L33.8862 25.8147Z" fill="#9C9B9B"/>
</svg>
