<svg width="12" height="7" viewBox="0 0 12 7" fill="none" xmlns="http://www.w3.org/2000/svg">
<path d="M11.9978 1.07143C11.9978 1.16071 11.9531 1.26116 11.8862 1.32812L6.68527 6.52902C6.6183 6.59598 6.51786 6.64062 6.42857 6.64062C6.33929 6.64062 6.23884 6.59598 6.17188 6.52902L0.970982 1.32812C0.904018 1.26116 0.859375 1.16071 0.859375 1.07143C0.859375 0.982143 0.904018 0.881696 0.970982 0.814732L1.52902 0.256696C1.59598 0.189732 1.68527 0.145089 1.78571 0.145089C1.875 0.145089 1.97545 0.189732 2.04241 0.256696L6.42857 4.64286L10.8147 0.256696C10.8817 0.189732 10.9821 0.145089 11.0714 0.145089C11.1607 0.145089 11.2612 0.189732 11.3281 0.256696L11.8862 0.814732C11.9531 0.881696 11.9978 0.982143 11.9978 1.07143Z" fill="#B0ACAC"/>
</svg>
