<svg id="Layer_1" enable-background="new 0 0 68 68" height="512" viewBox="0 0 68 68" width="512" xmlns="http://www.w3.org/2000/svg"><g id="_x31_28"><path d="m64.7445526 17.570219c-1.7786331-.7372589-3.9941711-.4091854-5.3253174 1.3866577-2.2273064 1.7588825-2.6318092 4.7740307-1.2415161 7.0031128-1.5784302 2.9020996-3.3148193 5.873291-5.2388306 8.6259785-1.4853096.5933838-3.2482681-.4945908-4.4150391-1.8204346-2.1828003-2.4801044-3.3428345-5.5506001-3.7537231-9.8991108 1.348114-.4145107 2.3750191-1.5318317 2.7415161-2.6585083 0 0 0 0 0-.0004883.4125977-1.2705078-.0170898-2.7553711-1.0444336-3.6098633-1.0239258-.8530264-2.5605469-1.0107412-3.7368164-.3823242-2.145565 1.1439857-2.5810814 4.9981117-.3810425 6.3825684-.1259766.6271362-.8328247 1.3123779-1.2212524 1.8591309-2.8197517 3.9691601-3.011322 4.3358955-3.609314 4.7675171-.1954956-.4819946-.3798828-.9692383-.5575562-1.4595337 1.5490723-.6403809 2.7210083-2.1668701 2.8531494-3.8734131.152832-1.9746094-1.0834961-3.9628906-2.9389648-4.7270508-4.0626755-1.6761379-8.1145363 2.5778351-6.6757813 6.3989258.3466797.9204102 1.2358398 1.8745117 2.2236328 2.269043-.6851196 1.7796021-1.3989868 3.5739746-2.2285767 5.3055439-3.7529907-2.5230732-6.0317993-6.5958271-8.0162354-10.2788715 1.5399532-.8850594 2.2433643-2.6775188 1.8766479-4.1819458-.4125977-1.6904297-2.1181641-2.979003-3.7895508-2.9086905-1.7758789.0615234-3.3393555 1.5332022-3.4858398 3.2807608-.1605511 1.9265995 1.2379055 3.9251633 3.2484741 4.2282715-.6940575 1.1200275-.8637638 3.9448624-4.0221558 9.1958027-.5338764.8828392-1.108263 1.730999-2.0420542 2.1529541-2.1175537-2.7911396-4.2548828-5.8906879-6.0286255-9.2351093.5754395-1.1679688.9620361-2.8247681.5714111-4.1290283-.4379883-1.4633789-1.6308594-2.6430664-3.0375977-3.0053711-2.0626483-.5281982-4.4403405.6714497-5.0397339 3.0614624-.9149698 2.1822147.4635873 5.1102905 3.0489502 5.8068237 1.535095 5.7691059 1.991699 11.8742085 1.3365476 17.8079853-.027771-.027771-.052063-.0643311-.079834-.0921631-.7147217.6203613-.7120361 1.7923584.0212402 2.3907471-1.0864255 1.644165-.7147827 4.0858154.5332031 5.6109619s3.1049194 2.4098511 4.9492798 3.1039429c9.640748 3.6282959 20.2667847 3.272583 30.5487061 2.647522 6.9779053-.4241333 14.1436157-.9996338 20.4343872-4.0487061.7750854-.3756714 1.5601807-.810791 2.0618286-1.5109863.9692154-1.3528214.3387985-3.0753784-1.4346313-2.9949341.0205688-.0776978.0584717-.1447144.0702515-.227478.0878906-.6210938-.2119141-1.293457-.7460938-1.6733398-.0830078-.0585938-.1689453-.1083984-.2568359-.1494141l.1269531-.8022461c1.4901428-1.0655441 1.3413315-3.3398781-.3745117-4.1547852.1484375-5.8911133 1.1220703-11.3593769 2.8266602-15.8813496 2.1240234-.3574219 3.9628906-2.0761719 4.2954102-4.0961914.3710953-2.2519532-.938475-4.6093751-3.0463852-5.4843751zm-13.0014648 18.6474629c-.1583862.2092896-.3065186.432312-.4674683.6378174-1.6999168 2.17099-3.805706 4.1728897-6.5600586 3.859375-1.7650681-1.4345436-4.6866455-6.0967331-6.1503296-9.1439228.241497-.1417065.0297279.0391159 2.4210205-3.307373.8476563-1.1860352 1.6625977-2.3271484 2.4907227-3.5463867.574707 3.8081055 1.8173828 6.6494141 3.9208984 9.0395527 1.1653557 1.3242415 2.5944252 2.3202475 4.3452149 2.4609374zm-7.4448243-18.8862324c1.38274 0 2.1410446 1.3207607 1.7866211 2.4125977-.2182617.6723633-.8623047 1.3452148-1.565918 1.6367188-1.2084122.502903-2.110878-.3271084-2.1230469-1.6728516-.0112761-1.2134514.6267091-2.3764649 1.9023438-2.3764649zm-14.7894897 17.1621113c-1.164053 2.1909637-2.9072514 4.9228554-5.0283813 6.1894531-1.2641602.7543945-2.6650391 1.0019531-3.8500977.6777344-2.029932-.5572357-3.6126766-2.8238983-5.336915-5.0133057.7841806-.2791748 1.5249033-.7874146 2.1352549-1.4857178 1.7702847-2.0253487 3.3697014-7.4365997 4.109375-10.0371113 1.9447021 3.5335694 4.262329 7.2398091 7.9707641 9.6689473zm-11.2339478-15.3198261c.0820313-.9804688 1.0366211-1.871582 2.0424805-1.90625 1.061779-.0241318 2.043211.7913265 2.2807617 1.7651367.4413052 1.8113499-1.7728405 3.8339024-3.5004883 2.1850586-.5673828-.5415039-.8828124-1.3247071-.8227539-2.0439453zm42.0439454 30.1977558c.3792763.3170967-.2997131.8782883-.7036133 1.1616211-3.9975586 2.7993164-9.4819336 3.8481445-14.8129883 4.5644531-11.527832 1.5483398-22.0517578 1.347168-29.6333008-.5668945-2.7597656-.6972656-6.3706055-2.0361328-8.2265625-3.7026367-.2753906-.2470703-.6533203-.6235352-.7592773-1.0366211-.0556641-.21875.0585938-.4667969.2597656-.5649414.4397287-.2141304.4266834-.6243248.4371338-.9584351 7.575284 4.2778893 17.6577988 5.556778 26.3143311 5.0717163 9.3358154-.5266724 16.2672729-1.1607056 26.1152954-4.7947388l-.0015259.0095825c-.0907555.5694695.473751 1.0262871 1.0107422.8168946zm5.9916992-26.5605488c-.2451172 1.4902344-1.7714844 2.7915039-3.402832 2.9003906-.2895508.0195313-.5419922.2045898-.6479492.4746094-1.9233398 4.9052734-2.9960938 10.9135761-3.1020508 17.3754902-.0058594.3754883.2666016.6977539.6381836.7539063.3759766.0566406.7119141.3955078.7661133.7719727.0537109.3759766-.1743164.7949219-.519043.9545898-.4833755.2234955-.4249458.7003708-.4680786.8301392-.0349731.0076904-.0701904.0040283-.1046753.0170288-10.0224609 3.7900391-16.9443359 4.421875-26.3608398 4.9526367-10.1704712.5789795-19.6974487-1.3604736-26.2247314-5.3071289-.0093384-.2416992-.128418-.4681396-.3363037-.6020508-.197319-.1243973-.0966129-.618351.1152344-.8857422.0844727-.1069336.1386719-.2348633.1557617-.3701172.7905262-6.1484375.270995-12.5371094-1.5029308-18.4760762-.0548706-.1836548-.1782227-.3251343-.3297119-.4185181-.1061401-.2103882-.2974243-.3740234-.5482178-.4110718-2.3340077-.3450928-3.415452-3.0008392-2.0527341-4.7241211 1.3201022-1.6710415 4.001729-1.2317677 4.6845703 1.0458984.2817383.9414063-.1074219 2.4414063-.6464844 3.3481445-.1759644.2955933-.114624.6550903.1115723.892395.0078735.0183105.006958.0379639.0163574.0558472 2.6308594 4.9873047 6.0385742 9.430666 9.0249023 13.1196308 1.6889143 2.0860748 3.4266233 3.8901367 6.1186533 3.8901367 6.4632816 0 10.1380615-9.4348946 12.4492188-15.4648457.1940842-.5046177-.1976166-1.0596886-.7641602-1.015625-.5620117.0463867-1.4921875-.7285156-1.7768555-1.4833984-.9791603-2.6019783 1.8585358-5.6558247 4.7006836-4.4838867 1.2509766.5151367 2.1171875 1.9018555 2.0151367 3.2246094-.1035156 1.3330078-1.1977539 2.5532227-2.4912109 2.7783203-.5604095.0972004-.8643341.8010979-.3841553 1.2679443-.0030518.0918579.0075684.1856689.0404053.2774658 1.5791016 4.4204121 3.8618164 8.524416 6.7836914 12.1982441 1.1070786 1.3931198 2.3530579 2.6054688 4.1357422 2.6054688 2.3058853 0 3.7981491-1.6911087 5.1723633-3.4995117 3.0996094-4.078125 6.3115234-8.5068378 8.8012695-13.258791.069458-.1329346.081665-.2750854.0688477-.4140625.0635986-.083374.1060791-.1762695.1304932-.2776489.0134888-.0211792.0269165-.0423584.0404053-.0635376-.0085449-.0077515-.0155029-.0170898-.0239868-.0249634.0147705-.1268921.0092163-.2568359-.0453491-.3823853-1.9327202-4.4520893.8664284-7.1715183 3.621582-6.0263672 1.4575192.6044924 2.3979489 2.2978518 2.141113 3.8549807z"/><path d="m9.472579 38.3294983c-1.2802734.4516602-2.2700195 2.6323242-2.3198242 3.6411133-.0551758 1.1123047.4018555 2.3286133 1.2861328 3.4262695 1.977293 2.4517632 4.8500376 1.8389893 4.9599609-1.4799805.0366211-1.112793-.0839844-2.0483398-.3686523-2.8608398-.535759-1.5289688-2.0028792-3.2744408-3.5576172-2.7265625zm1.9794922 6.9243164c-.2060547.1450195-.5551758.1547852-.8681641.0244141-.807579-.3395805-1.9980745-1.9238319-1.9331055-3.2333984.0317383-.6430664.8266602-2.1264648 1.3208008-2.3012695.5422106-.1807365 1.4160423 1.1606026 1.6430664 1.8085938.3001194.8568228.5370961 3.2135008-.1625976 3.70166z"/><path d="m37.6327362 41.4569397c-1.2246094-.9389648-2.8061523-1.1572266-4.2299805-.5859375-3.4918842 1.399971-3.7325935 6.1254158-.6958008 8.1064453 4.4191552 2.8789482 9.0236092-4.3804893 4.9257813-7.5205078zm-1.1118164 5.9008789c-.9286652.8698196-1.9414711 1.0494919-2.9946289.362793-1.0102539-.6582031-1.5864258-1.9506836-1.4018555-3.1425781.1635742-1.0537109.8500977-1.9189453 1.8364258-2.3149414.9428711-.3774414 1.9487305-.2368164 2.7597656.3842773 1.3111115 1.0049248 1.401661 3.2095795-.199707 4.7104492z"/><path d="m56.5731659 38.3802795c-1.574707.2485352-2.8022461 2.4775391-3.046875 3.6552734v.0009766c-.9535522 4.6058846 4.9608612 5.662796 5.628418.2939453.3416938-2.7311058-1.2261467-4.1632995-2.581543-3.9501953zm1.0932617 3.7646485c-.4047852 3.238266-3.2157402 2.8297653-2.6713867.1953125.1972656-.9482422 1.1469727-2.3735352 1.8125-2.4785156.1982422-.0371094.4248047.1523438.6513672.5493164.2338867.4106445.3017578.977539.2075195 1.7338867z"/><path d="m14.8568563 11.4164114c-.3232422.2592773-.375.7314453-.1157227 1.0541992l1.4082041 1.7563477c.1484375.1845703.3662109.2807617.5859375.2807617.6248283 0 .9784489-.7277498.5849609-1.2192383l-1.4091806-1.7563477c-.2583007-.3222656-.730957-.3754882-1.0541992-.1157226z"/><path d="m18.6385956 9.011138c-.4111328-.0390625-.777832.2641602-.8168945.6762695-.1010742 1.0717773-.0092773 2.1425781.2724609 3.1826172.0908203.3344727.3930664.5541992.7236328.5541992.4969654 0 .8525791-.4721375.7246094-.9458008-.2348633-.8666992-.3110352-1.7583008-.2275391-2.6503906.0390625-.4125977-.2641601-.7783203-.6762695-.8168945z"/><path d="m22.031662 10.085845-1.4165039 2.0830078c-.2329102.3427734-.144043.809082.1982422 1.0419922.3446388.2340946.8105812.142251 1.0419922-.1982422l1.4165039-2.0830078c.2329102-.3427734.144043-.809082-.1982422-1.0419922-.3427735-.2324219-.8090821-.1445312-1.0419922.1982422z"/></g></svg>