<?xml version="1.0" encoding="UTF-8" standalone="no"?>
<!-- Created with Inkscape (http://www.inkscape.org/) -->

<svg
   version="1.1"
   id="svg2541"
   xml:space="preserve"
   width="682.66669"
   height="682.66669"
   viewBox="0 0 682.66669 682.66669"
   xmlns="http://www.w3.org/2000/svg"
   xmlns:svg="http://www.w3.org/2000/svg"><defs
     id="defs2545"><clipPath
       clipPathUnits="userSpaceOnUse"
       id="clipPath2555"><path
         d="M 0,512 H 512 V 0 H 0 Z"
         id="path2553" /></clipPath><clipPath
       clipPathUnits="userSpaceOnUse"
       id="clipPath2579"><path
         d="M 0,512 H 512 V 0 H 0 Z"
         id="path2577" /></clipPath><clipPath
       clipPathUnits="userSpaceOnUse"
       id="clipPath2607"><path
         d="M 0,512 H 512 V 0 H 0 Z"
         id="path2605" /></clipPath></defs><g
     id="g2547"
     transform="matrix(1.3333333,0,0,-1.3333333,0,682.66667)"><g
       id="g2549"><g
         id="g2551"
         clip-path="url(#clipPath2555)"><g
           id="g2557"
           transform="translate(90.0845,223.6069)"><path
             d="m 0,0 -82.584,88.963 78.48,94.01"
             style="fill:none;stroke:#000000;stroke-width:15;stroke-linecap:round;stroke-linejoin:round;stroke-miterlimit:10;stroke-dasharray:none;stroke-opacity:1"
             id="path2559" /></g></g></g><g
       id="g2561"
       transform="translate(155.75,152.8701)"><path
         d="M 0,0 -41.719,44.941"
         style="fill:none;stroke:#000000;stroke-width:15;stroke-linecap:round;stroke-linejoin:round;stroke-miterlimit:10;stroke-dasharray:none;stroke-opacity:1"
         id="path2563" /></g><g
       id="g2565"
       transform="translate(181.23,125.4302)"><path
         d="M 0,0 74.77,-80.55 213.84,69.26"
         style="fill:none;stroke:#000000;stroke-width:15;stroke-linecap:round;stroke-linejoin:round;stroke-miterlimit:10;stroke-dasharray:none;stroke-opacity:1"
         id="path2567" /></g><g
       id="g2569"
       transform="translate(460.8799,265.582)"><path
         d="M 0,0 -40.45,-43.572"
         style="fill:none;stroke:#000000;stroke-width:15;stroke-linecap:round;stroke-linejoin:round;stroke-miterlimit:10;stroke-dasharray:none;stroke-opacity:1"
         id="path2571" /></g><g
       id="g2573"><g
         id="g2575"
         clip-path="url(#clipPath2579)"><g
           id="g2581"
           transform="translate(358.3926,416.6201)"><path
             d="m 0,0 h 59.237 l 86.87,-104.05 -19.651,-21.169"
             style="fill:none;stroke:#000000;stroke-width:15;stroke-linecap:round;stroke-linejoin:round;stroke-miterlimit:10;stroke-dasharray:none;stroke-opacity:1"
             id="path2583" /></g></g></g><g
       id="g2585"
       transform="translate(146.8999,416.6201)"><path
         d="m 0,0 h 109.1 67.358"
         style="fill:none;stroke:#000000;stroke-width:15;stroke-linecap:round;stroke-linejoin:round;stroke-miterlimit:10;stroke-dasharray:none;stroke-opacity:1"
         id="path2587" /></g><g
       id="g2589"
       transform="translate(115.71,389.1401)"><path
         d="M 0,0 59.48,-76.57 140.29,27.48"
         style="fill:none;stroke:#000000;stroke-width:15;stroke-linecap:round;stroke-linejoin:round;stroke-miterlimit:10;stroke-dasharray:none;stroke-opacity:1"
         id="path2591" /></g><g
       id="g2593"
       transform="translate(417.626,416.6157)"><path
         d="M 0,0 -80.813,-104.046 -161.626,0"
         style="fill:none;stroke:#000000;stroke-width:15;stroke-linecap:round;stroke-linejoin:round;stroke-miterlimit:10;stroke-dasharray:none;stroke-opacity:1"
         id="path2595" /></g><g
       id="g2597"
       transform="translate(175.187,312.5693)"><path
         d="M 0,0 80.813,-267.693 161.626,0 Z"
         style="fill:none;stroke:#000000;stroke-width:15;stroke-linecap:round;stroke-linejoin:round;stroke-miterlimit:10;stroke-dasharray:none;stroke-opacity:1"
         id="path2599" /></g><g
       id="g2601"><g
         id="g2603"
         clip-path="url(#clipPath2607)"><g
           id="g2609"
           transform="translate(504.5,312.5693)"><path
             d="M 0,0 H -167.687"
             style="fill:none;stroke:#000000;stroke-width:15;stroke-linecap:round;stroke-linejoin:round;stroke-miterlimit:10;stroke-dasharray:none;stroke-opacity:1"
             id="path2611" /></g><g
           id="g2613"
           transform="translate(7.5,312.5693)"><path
             d="M 0,0 H 167.687"
             style="fill:none;stroke:#000000;stroke-width:15;stroke-linecap:round;stroke-linejoin:round;stroke-miterlimit:10;stroke-dasharray:none;stroke-opacity:1"
             id="path2615" /></g><g
           id="g2617"
           transform="translate(419.541,208.2173)"><path
             d="M 0,0 14.248,7.124 0,14.248 c -3.43,1.714 -6.111,4.628 -7.535,8.189 L -17.067,46.268 -26.6,22.437 c -1.423,-3.561 -4.105,-6.475 -7.535,-8.189 L -48.383,7.124 -34.135,0 c 3.43,-1.715 6.112,-4.629 7.535,-8.189 l 9.533,-23.831 9.532,23.831 C -6.111,-4.629 -3.43,-1.715 0,0 Z"
             style="fill:none;stroke:#000000;stroke-width:15;stroke-linecap:round;stroke-linejoin:round;stroke-miterlimit:10;stroke-dasharray:none;stroke-opacity:1"
             id="path2619" /></g><g
           id="g2621"
           transform="translate(180.1328,124.8789)"><path
             d="M 0,0 14.247,7.124 0,14.248 c -3.43,1.714 -6.111,4.628 -7.536,8.189 L -17.068,46.268 -26.6,22.437 c -1.424,-3.561 -4.106,-6.475 -7.535,-8.189 L -48.383,7.124 -34.135,0 c 3.429,-1.715 6.111,-4.629 7.535,-8.189 l 9.532,-23.831 9.532,23.831 C -6.111,-4.629 -3.43,-1.715 0,0 Z"
             style="fill:none;stroke:#000000;stroke-width:15;stroke-linecap:round;stroke-linejoin:round;stroke-miterlimit:10;stroke-dasharray:none;stroke-opacity:1"
             id="path2623" /></g><g
           id="g2625"
           transform="translate(128.5186,407.4238)"><path
             d="M 0,0 18.384,9.192 0,18.384 c -4.426,2.213 -7.885,5.973 -9.723,10.567 L -22.022,59.7 -34.322,28.951 C -36.16,24.357 -39.62,20.597 -44.045,18.384 L -62.429,9.192 -44.045,0 c 4.425,-2.213 7.885,-5.973 9.723,-10.567 l 12.3,-30.749 12.299,30.749 C -7.885,-5.973 -4.426,-2.213 0,0 Z"
             style="fill:none;stroke:#000000;stroke-width:15;stroke-linecap:round;stroke-linejoin:round;stroke-miterlimit:10;stroke-dasharray:none;stroke-opacity:1"
             id="path2627" /></g></g></g></g></svg>
